<svg width="260" height="260" viewBox="0 0 260 260" fill="none" xmlns="http://www.w3.org/2000/svg">
<g clip-path="url(#clip0_3608_7941)">
<circle cx="130" cy="130" r="130" fill="#748C70"/>
<path fill-rule="evenodd" clip-rule="evenodd" d="M89.0268 253.418C90.0084 248.869 91.1975 244.45 92.6099 240.167C77.328 222.752 77.3193 205.783 77.3193 197.188L77.3193 197.182C77.3837 174.209 84.2901 153.274 101.754 138.125C119.169 123.018 146.771 113.938 187.653 113.938H223.89C224.995 113.938 225.89 114.833 225.89 115.938V133.993C225.89 134.031 225.889 134.069 225.887 134.108C223.614 173.718 212.723 201.347 195.01 219.067C177.277 236.807 152.998 244.326 124.585 244.326H97.3749C96.8445 244.326 96.3358 244.116 95.9607 243.741C95.8864 243.666 95.8124 243.592 95.7387 243.518C94.6264 247.116 93.6694 250.82 92.8591 254.624C91.5732 254.241 90.2957 253.839 89.0268 253.418ZM108.193 216.917C103.623 223.771 99.9782 231.223 97.1568 239.227C97.5003 239.593 97.8512 239.96 98.2098 240.326H124.585C152.305 240.326 175.423 233.004 192.181 216.24C208.949 199.464 219.642 172.944 221.89 133.936V117.938H187.653C147.284 117.938 120.783 126.913 104.375 141.146C88.0173 155.336 81.382 175.026 81.3193 197.19V197.203C81.3193 205.211 81.3193 220.127 94.1476 235.796C96.9559 228.297 100.498 221.248 104.865 214.698C115.251 199.118 130.231 186.471 150.855 177.304C151.865 176.856 153.047 177.31 153.495 178.32C153.944 179.329 153.489 180.511 152.48 180.96C132.479 189.849 118.119 202.027 108.193 216.917Z" fill="white"/>
</g>
<defs>
<clipPath id="clip0_3608_7941">
<rect width="260" height="260" fill="white"/>
</clipPath>
</defs>
</svg>
